# xmcd
#
# Track frame offsets:
#	150
#	19582
#	39632
#	59453
#	78916
#	92431
#	111963
#	128075
#	142505
#	160412
#	181370
#	203570
#
# Disc length: 2969 seconds
# Revision: 2
# Processed by: cddbd v1.5.2PL0 Copyright (c) Steve Scherf et al.
# Submitted via: dBpowerAMP V12.0
#
DISCID=900b970c
DTITLE=Obstawa Prezydenta - Polaczek ...czyli rura
DYEAR=2000
DGENRE=Blues
TTITLE0=Słodkođci ty moja
TTITLE1=Zawsze z kąta w kąt
TTITLE2=Polaczek
TTITLE3=Rura
TTITLE4=Życie wędrowca
TTITLE5=Krew i chleb
TTITLE6=Hetman boogie
TTITLE7=W brzuch frajera
TTITLE8=Dworcowe słoneczko
TTITLE9=Fikcja
TTITLE10=Cała noc
TTITLE11=Trochę o sobie i o nadziei
EXTD=
EXTT0=
EXTT1=
EXTT2=
EXTT3=
EXTT4=
EXTT5=
EXTT6=
EXTT7=
EXTT8=
EXTT9=
EXTT10=
EXTT11=
PLAYORDER=
